<svg viewBox="0 0 200 200" xmlns="http://www.w3.org/2000/svg">
  <!-- People icons connected in network -->
  <defs>
    <linearGradient id="grad2" x1="0%" y1="0%" x2="100%" y2="100%">
      <stop offset="0%" style="stop-color:#6a5e56;stop-opacity:1" />
      <stop offset="100%" style="stop-color:#6a5e56;stop-opacity:1" />
    </linearGradient>
  </defs>
  
  <!-- Connection lines -->
  <line x1="100" y1="70" x2="70" y2="100" stroke="#6a5e56" stroke-width="2" opacity="0.4"/>
  <line x1="100" y1="70" x2="130" y2="100" stroke="#6a5e56" stroke-width="2" opacity="0.4"/>
  <line x1="70" y1="100" x2="100" y2="130" stroke="#6a5e56" stroke-width="2" opacity="0.4"/>
  <line x1="130" y1="100" x2="100" y2="130" stroke="#6a5e56" stroke-width="2" opacity="0.4"/>
  
  <!-- Center person (larger) -->
  <circle cx="100" cy="60" r="10" fill="url(#grad2)"/>
  <path d="M 85 80 Q 85 70 100 70 Q 115 70 115 80 L 115 90 L 85 90 Z" fill="url(#grad2)"/>
  
  <!-- Left person -->
  <circle cx="70" cy="90" r="8" fill="#6a5e56"/>
  <path d="M 58 105 Q 58 97 70 97 Q 82 97 82 105 L 82 113 L 58 113 Z" fill="#6a5e56"/>
  
  <!-- Right person -->
  <circle cx="130" cy="90" r="8" fill="#6a5e56"/>
  <path d="M 118 105 Q 118 97 130 97 Q 142 97 142 105 L 142 113 L 118 113 Z" fill="#6a5e56"/>
  
  <!-- Bottom person -->
  <circle cx="100" cy="120" r="8" fill="#6a5e56"/>
  <path d="M 88 135 Q 88 127 100 127 Q 112 127 112 135 L 112 143 L 88 143 Z" fill="#6a5e56"/>
  
  <!-- Text -->
  <text x="100" y="175" font-family="Arial, sans-serif" font-size="24" font-weight="bold" fill="#6a5e56" text-anchor="middle">SocialCore</text>
  <text x="100" y="192" font-family="Arial, sans-serif" font-size="12" fill="#64748B" text-anchor="middle">Connect. Share. Engage.</text>
</svg>
